<svg fill="#000000" xmlns="http://www.w3.org/2000/svg"  viewBox="0 0 50 50" width="24px" height="24px"><path d="M 24.400391 9 C 18.047481 9 11.841886 9.4912502 8.2988281 10.220703 L 8.2773438 10.224609 L 8.2578125 10.230469 C 5.9731342 10.801638 4.2004289 12.381577 3.8183594 14.513672 C 3.8183594 14.513672 3.8183594 14.515625 3.8183594 14.515625 C 3.4020807 16.701687 3 20.343065 3 25 C 3 29.941882 3.5009174 33.393569 4.0195312 35.585938 C 4.400347 37.711968 6.1564529 39.411369 8.5039062 39.880859 L 8.5058594 39.880859 L 8.5097656 39.880859 C 12.226538 40.603565 18.246237 41.099609 24.5 41.099609 C 30.753763 41.099609 36.871619 40.604227 40.591797 39.880859 L 40.617188 39.876953 L 40.642578 39.871094 C 42.931719 39.298809 44.706617 37.712635 45.083984 35.574219 L 45.085938 35.5625 L 45.087891 35.552734 C 45.489356 32.943212 45.998163 29.385531 46.099609 24.921875 L 46.099609 24.912109 L 46.099609 24.900391 C 46.099609 21.228358 45.691692 17.670027 45.083984 14.326172 C 44.700008 12.150303 42.84158 10.608804 40.654297 10.033203 L 40.601562 10.019531 L 40.544922 10.009766 C 37.075013 9.4996379 31.150142 9 24.400391 9 z M 24.400391 11 C 31.010805 11 36.833357 11.495522 40.173828 11.982422 C 41.767875 12.412896 42.900791 13.45865 43.115234 14.673828 L 43.115234 14.675781 L 43.115234 14.679688 C 43.706081 17.929346 44.098439 21.364365 44.099609 24.884766 C 44.000709 29.209183 43.511156 32.643432 43.113281 35.230469 C 42.889839 36.485701 41.870185 37.492109 40.171875 37.921875 C 36.687446 38.595753 30.629638 39.099609 24.5 39.099609 C 18.354632 39.099609 12.376019 38.595118 8.8925781 37.917969 L 8.890625 37.917969 C 7.2465615 37.586682 6.2078664 36.493015 5.984375 35.226562 L 5.9804688 35.197266 L 5.9726562 35.167969 C 5.4941959 33.158437 5 29.831973 5 25 C 5 20.457971 5.3995806 16.900737 5.7832031 14.886719 L 5.7832031 14.880859 L 5.7851562 14.873047 C 6.0071542 13.615105 7.0284334 12.605619 8.7304688 12.175781 C 11.993074 11.5074 18.166915 11 24.400391 11 z M 19 16.966797 L 19 18.699219 L 19 33.033203 L 32.898438 25 L 19 16.966797 z M 21 20.433594 L 28.902344 25 L 21 29.566406 L 21 20.433594 z"/></svg>