<svg fill="#000000" xmlns="http://www.w3.org/2000/svg"  viewBox="0 0 50 50" width="24px" height="24px"><path d="M 34.232422 5.4785156 C 28.252103 5.4785156 23.384766 10.345701 23.384766 16.324219 C 23.384766 16.68687 23.470936 17.028109 23.505859 17.382812 C 16.110717 16.677787 9.5604018 13.095779 5.1171875 7.6464844 A 1.0001 1.0001 0 0 0 3.4785156 7.7753906 C 2.5447093 9.3809209 2.0097656 11.24956 2.0097656 13.232422 C 2.0097656 15.647583 2.8615936 17.838758 4.2011719 19.646484 C 3.9417778 19.533054 3.6620856 19.459012 3.4160156 19.322266 A 1.0001 1.0001 0 0 0 1.9296875 20.195312 L 1.9296875 20.320312 C 1.9296875 24.01419 3.8406066 27.213073 6.6679688 29.173828 C 6.6347987 29.167828 6.5995089 29.170462 6.5664062 29.164062 A 1.0001 1.0001 0 0 0 5.4257812 30.451172 C 6.5458558 33.934363 9.4139466 36.561793 12.962891 37.521484 C 10.145739 39.201735 6.8769003 40.199219 3.3496094 40.199219 C 2.5894141 40.199219 1.8471959 40.156169 1.1210938 40.068359 A 1.0001 1.0001 0 0 0 0.4609375 41.904297 C 4.9713616 44.798382 10.339295 46.486328 16.095703 46.486328 C 25.428862 46.486328 32.738569 42.590881 37.650391 37.019531 C 42.562213 31.448181 45.117188 24.229079 45.117188 17.470703 C 45.117188 17.188515 45.107689 16.913552 45.099609 16.636719 C 46.929838 15.237225 48.551516 13.569719 49.832031 11.652344 A 1.0001 1.0001 0 0 0 48.59375 10.181641 C 48.079505 10.409677 47.483562 10.451359 46.947266 10.632812 C 47.653284 9.6863255 48.25897 8.6539153 48.626953 7.5039062 A 1.0001 1.0001 0 0 0 47.164062 6.3398438 C 45.46149 7.3481462 43.575221 8.0704949 41.583984 8.5039062 C 39.643165 6.6818705 37.096659 5.4785156 34.232422 5.4785156 z M 34.232422 7.4785156 C 36.783348 7.4785156 39.076941 8.5502736 40.689453 10.271484 A 1.0001 1.0001 0 0 0 41.611328 10.568359 C 42.912602 10.3124 44.158122 9.911945 45.361328 9.4257812 C 44.66576 10.362433 43.833106 11.188521 42.828125 11.791016 A 1.0001 1.0001 0 0 0 43.462891 13.640625 C 44.461582 13.519921 45.350787 13.115956 46.300781 12.861328 C 45.446097 13.787272 44.524151 14.647834 43.503906 15.384766 A 1.0001 1.0001 0 0 0 43.089844 16.238281 C 43.107344 16.645629 43.117188 17.058797 43.117188 17.470703 C 43.117188 23.721328 40.721069 30.510914 36.150391 35.695312 C 31.579713 40.879712 24.876545 44.486328 16.095703 44.486328 C 12.112163 44.486328 8.3413361 43.613676 4.9414062 42.064453 C 9.160905 41.741698 13.05404 40.236651 16.195312 37.773438 A 1.0001 1.0001 0 0 0 15.597656 35.986328 C 12.304976 35.925958 9.5437495 34.01601 8.0683594 31.308594 C 8.1250054 31.309492 8.1774731 31.324219 8.234375 31.324219 C 9.2207195 31.324219 10.180311 31.192507 11.091797 30.941406 A 1.0001 1.0001 0 0 0 11.023438 28.998047 C 7.4662396 28.279806 4.8085278 25.389779 4.1894531 21.789062 C 5.1955134 22.137743 6.2440683 22.392536 7.359375 22.427734 A 1.0001 1.0001 0 0 0 7.9453125 20.597656 C 5.5687292 19.009074 4.0097656 16.309819 4.0097656 13.232422 C 4.0097656 12.087145 4.289476 11.028124 4.6835938 10.025391 C 9.6826092 15.519152 16.678576 19.170089 24.589844 19.568359 A 1.0001 1.0001 0 0 0 25.615234 18.341797 C 25.463749 17.694624 25.384766 17.019127 25.384766 16.324219 C 25.384766 11.426736 29.332741 7.4785156 34.232422 7.4785156 z"/></svg>